<?xml version="1.0" ?><svg data-name="Layer 31" id="Layer_31" viewBox="0 0 100 100" xmlns="http://www.w3.org/2000/svg"><title/><path d="M34.48,24.38A14.65,14.65,0,0,0,19.83,38.94,14.9,14.9,0,0,0,24.38,49.7L29,76H42s1.16-25.3,1.26-25.38L77.7,41.52l2.65-13.77S35.28,24.38,34.48,24.38ZM40.27,68H37.61l.13-9h2.87Zm.42-11H35.76l-.18,13h4.61L40,74H30.65l-4-22.49a14.38,14.38,0,0,0,7.63,2.09,14.36,14.36,0,0,0,6.55-1.43Zm-6.37-5.5A12.56,12.56,0,1,1,46.88,38.94,12.58,12.58,0,0,1,34.31,51.5ZM76,39.82,46,47.65a14.47,14.47,0,0,0,2.92-8.71A14.66,14.66,0,0,0,42.51,27l8.49.62V32h2V27.77L57,28v4h2V28.18l3,.26V32h2V28.58l13.57,1ZM34.31,31.44a7.5,7.5,0,1,0,7.5,7.5A7.51,7.51,0,0,0,34.31,31.44Zm0,13a5.5,5.5,0,1,1,5.5-5.5A5.51,5.51,0,0,1,34.31,44.44Z"/></svg>