<?xml version="1.0" ?><!DOCTYPE svg  PUBLIC '-//W3C//DTD SVG 1.1//EN'  'http://www.w3.org/Graphics/SVG/1.1/DTD/svg11.dtd'><svg enable-background="new 0 0 512 512" height="512px" id="washing_x5F_machine_1_" version="1.1" viewBox="0 0 512 512" width="512px" xml:space="preserve" xmlns="http://www.w3.org/2000/svg" xmlns:xlink="http://www.w3.org/1999/xlink"><g id="washing_x5F_machine"><path d="M407.41,48.628H104.603c-8.1,0-14.688,6.583-14.688,14.676v85.117v7.2v293.063c0,8.1,6.589,14.688,14.688,14.688H407.41   c8.092,0,14.676-6.589,14.676-14.688V155.62v-7.2V63.304C422.086,55.211,415.502,48.628,407.41,48.628z M414.887,448.684   c0,4.129-3.354,7.488-7.477,7.488H104.603c-4.129,0-7.489-3.359-7.489-7.488v-14.873h317.773V448.684z M414.887,426.611H97.114   V155.62h317.773V426.611z M414.887,148.42H97.114V63.304c0-4.122,3.359-7.476,7.489-7.476H407.41c4.122,0,7.477,3.354,7.477,7.476   V148.42z"/><path d="M113.914,131.62h284.172V72.628H113.914V131.62z M121.114,79.828h269.773v44.592H121.114V79.828z"/><path d="M256.002,405.227c62.92,0,114.108-51.189,114.108-114.109s-51.188-114.108-114.108-114.108   s-114.109,51.188-114.109,114.108S193.082,405.227,256.002,405.227z M256.002,184.208c58.949,0,106.908,47.959,106.908,106.909   c0,58.949-47.959,106.908-106.908,106.908c-58.95,0-106.909-47.959-106.909-106.908   C149.093,232.167,197.052,184.208,256.002,184.208z"/><path d="M256.002,379.146c36.463,0,69.589-22.973,82.432-57.166c0.789-2.104,0.703-4.393-0.244-6.444   c-0.966-2.094-2.777-3.749-4.967-4.541c-8.35-3.021-13.959-11.009-13.959-19.878c0-8.868,5.609-16.856,13.959-19.877   c2.191-0.793,4.002-2.449,4.967-4.543c0.947-2.052,1.033-4.34,0.244-6.443c-12.843-34.192-45.969-57.166-82.432-57.166   c-36.33,0-69.414,22.86-82.326,56.884c-0.831,2.189-0.747,4.559,0.238,6.67c0.992,2.13,2.771,3.733,5.01,4.515   c8.483,2.961,14.183,10.982,14.183,19.961s-5.699,17-14.182,19.961c-2.238,0.781-4.018,2.385-5.01,4.514   c-0.984,2.111-1.069,4.48-0.238,6.671C186.588,356.286,219.672,379.146,256.002,379.146z M180.439,318.634   c0.096-0.204,0.333-0.574,0.857-0.757c11.37-3.971,19.01-14.725,19.01-26.76c0-12.037-7.64-22.79-19.01-26.76   c-0.524-0.182-0.762-0.553-0.857-0.758c-0.11-0.236-0.206-0.615-0.032-1.073c11.858-31.245,42.237-52.238,75.595-52.238   c33.48,0,63.898,21.097,75.69,52.497c0.111,0.296,0.097,0.598-0.04,0.896c-0.166,0.359-0.486,0.646-0.879,0.788   c-11.191,4.049-18.71,14.757-18.71,26.647c0,11.89,7.519,22.6,18.71,26.648c0.393,0.142,0.713,0.429,0.879,0.787   c0.137,0.299,0.151,0.601,0.04,0.896c-11.792,31.4-42.211,52.496-75.69,52.496c-33.358,0-63.737-20.992-75.595-52.237   C180.234,319.25,180.33,318.871,180.439,318.634z"/><circle cx="150.436" cy="102.124" r="4.2"/><circle cx="168.749" cy="102.124" r="4.2"/><circle cx="187.063" cy="102.124" r="4.2"/><rect height="7.2" width="150.177" x="215.134" y="98.524"/></g></svg>